<svg xmlns="http://www.w3.org/2000/svg" viewBox="0 0 1225.18 213.02"><defs><style>.cls-1{fill:#00b8a9;}.cls-2{fill:#aa54d3;}.cls-3{fill:#c4e213;}</style></defs><title>logov1-2color</title><g id="sombra"><path class="cls-1" d="M149.76,335.16A59,59,0,0,1,173.38,340a62.33,62.33,0,0,1,19.56,13.21,64.13,64.13,0,0,1,13.33,19.56,58.27,58.27,0,0,1,5,23.88,61,61,0,0,1-4.7,23.88,61.67,61.67,0,0,1-13,19.56A60.42,60.42,0,0,1,174,453.27a61.1,61.1,0,0,1-24.26,4.83,62.7,62.7,0,0,1-28.45-6.35V481a15.64,15.64,0,0,1-4.83,11.43,16.23,16.23,0,0,1-11.94,4.83,16.46,16.46,0,0,1-11.3-4.45,15.06,15.06,0,0,1-5.21-11V396.63A57.67,57.67,0,0,1,93,373a63.67,63.67,0,0,1,32.89-32.89A58.24,58.24,0,0,1,149.76,335.16Zm-28.45,61.47a28.43,28.43,0,0,0,2.29,11.56,28.08,28.08,0,0,0,6.22,9,28.87,28.87,0,0,0,9.14,6,27.89,27.89,0,0,0,10.8,2.16A26.92,26.92,0,0,0,160.94,423a28.53,28.53,0,0,0,8.89-6.22,29,29,0,0,0,6-9.14,28.58,28.58,0,0,0,2.16-11,27.2,27.2,0,0,0-2.29-11,29.25,29.25,0,0,0-6.1-9,28.5,28.5,0,0,0-31.12-5.84,29.2,29.2,0,0,0-9,6.1,27.75,27.75,0,0,0-8.13,19.81Z" transform="translate(-72.9 -284.19)"/><path class="cls-1" d="M237.13,458.35a15.74,15.74,0,0,1-11.43-4.45,17.48,17.48,0,0,1-5.08-11.81v-47a57.35,57.35,0,0,1,5.21-23A61.77,61.77,0,0,1,239,353.32a62.71,62.71,0,0,1,19.3-12.7,66.52,66.52,0,0,1,23.49-5.21,15.82,15.82,0,0,1,11.81,4.83,18.18,18.18,0,0,1,5.21,11.68A15.51,15.51,0,0,1,294,363.48a17.37,17.37,0,0,1-11.94,5,27.75,27.75,0,0,0-19.81,8.13,29.26,29.26,0,0,0-6.1,9,27.82,27.82,0,0,0-2.29,11.3v46.23a16.45,16.45,0,0,1-5,10.92Q244.5,458.35,237.13,458.35Z" transform="translate(-72.9 -284.19)"/><path class="cls-1" d="M362.86,334.91a59,59,0,0,1,23.62,4.83A62.33,62.33,0,0,1,406,352.94a64.15,64.15,0,0,1,13.33,19.56,61.05,61.05,0,0,1,.13,47.88,63.92,63.92,0,0,1-13.08,19.43,60.59,60.59,0,0,1-43.56,18A62.41,62.41,0,0,1,339,453.27a59.84,59.84,0,0,1-19.56-12.83,60.61,60.61,0,0,1-18-43.82A60.36,60.36,0,0,1,319,353.57a63.24,63.24,0,0,1,19.56-13.21A66.4,66.4,0,0,1,362.86,334.91Zm0,33.27a27.66,27.66,0,0,0-10.92,2.16,29.35,29.35,0,0,0-9,6,28.14,28.14,0,0,0-6.22,9,27.81,27.81,0,0,0-2.29,11.3,27.17,27.17,0,0,0,2.29,11,29.59,29.59,0,0,0,6.22,9.14,30,30,0,0,0,9,6.22,26.28,26.28,0,0,0,10.92,2.29,27.18,27.18,0,0,0,11-2.29,28.14,28.14,0,0,0,9-6.22,30.82,30.82,0,0,0,6.1-9.14,27.17,27.17,0,0,0,2.29-11,29.38,29.38,0,0,0-8.38-19.81Q375.05,368.69,362.86,368.18Z" transform="translate(-72.9 -284.19)"/><path class="cls-1" d="M499.51,334.4a62.72,62.72,0,0,1,23.37,4.45,60.31,60.31,0,0,1,19.56,12.45,62.13,62.13,0,0,1,13.46,18.92A55.34,55.34,0,0,1,561,393.83v47a15.83,15.83,0,0,1-4.7,11.43,16.39,16.39,0,0,1-11.56,5.08,17.08,17.08,0,0,1-11.81-4.45,14.52,14.52,0,0,1-5-11.3V395.87a28.62,28.62,0,0,0-2.16-11,26.61,26.61,0,0,0-6.1-9,30.93,30.93,0,0,0-9.14-6.1,27.81,27.81,0,0,0-11.3-2.29,27,27,0,0,0-10.67,2.16,30.25,30.25,0,0,0-8.89,5.71,26.61,26.61,0,0,0-6.1,8.64,25.72,25.72,0,0,0-2.29,10.67v46.23a15.65,15.65,0,0,1-5.08,11.56,16.27,16.27,0,0,1-11.68,5,17,17,0,0,1-11.68-4.57,14.46,14.46,0,0,1-5.08-11.18V395.87a64.25,64.25,0,0,1,5-23.88,61.58,61.58,0,0,1,13-19.56,60.61,60.61,0,0,1,43.81-18Z" transform="translate(-72.9 -284.19)"/><path class="cls-1" d="M593.49,295.79a16,16,0,0,1,11.94,5,19,19,0,0,1,5.33,12.32v20.32h43.69a15.31,15.31,0,0,1,11.94,5.08A17.27,17.27,0,0,1,671,350.4a16.48,16.48,0,0,1-5.08,11.81q-5.08,5.21-11.43,5.21H610.76v27.94a28.51,28.51,0,0,0,2.16,11,30.44,30.44,0,0,0,6,9.27,27.17,27.17,0,0,0,9,6.35,27.79,27.79,0,0,0,11.3,2.29,32,32,0,0,0,11.3-1.78,23.05,23.05,0,0,0,8.25-5.33,18.32,18.32,0,0,1,11.81-4.7q6.48-.12,12.06,5a15.15,15.15,0,0,1,3.81,5.21,17,17,0,0,1,1.4,6.1A17.42,17.42,0,0,1,687,435a13.5,13.5,0,0,1-3.3,5.33,64.36,64.36,0,0,1-19.56,13.21,57.4,57.4,0,0,1-22.86,4.57,69.36,69.36,0,0,1-24.89-4.45A62.57,62.57,0,0,1,595.78,441a60.62,60.62,0,0,1-14.1-19.81,64.86,64.86,0,0,1-5.46-25.78V311.79a14.58,14.58,0,0,1,5.21-11.43A17.73,17.73,0,0,1,593.49,295.79Z" transform="translate(-72.9 -284.19)"/><path class="cls-1" d="M757.32,334.91a59,59,0,0,1,23.62,4.83,62.32,62.32,0,0,1,19.56,13.21,64.14,64.14,0,0,1,13.33,19.56,61.05,61.05,0,0,1,.13,47.88,63.91,63.91,0,0,1-13.08,19.43,60.59,60.59,0,0,1-43.56,18,62.41,62.41,0,0,1-23.88-4.57,59.83,59.83,0,0,1-19.56-12.83,60.61,60.61,0,0,1-18-43.82,60.36,60.36,0,0,1,17.65-43.05,63.25,63.25,0,0,1,19.56-13.21A66.4,66.4,0,0,1,757.32,334.91Zm0,33.27a27.66,27.66,0,0,0-10.92,2.16,29.35,29.35,0,0,0-9,6,28.14,28.14,0,0,0-6.22,9,27.8,27.8,0,0,0-2.29,11.3,27.16,27.16,0,0,0,2.29,11,29.59,29.59,0,0,0,6.22,9.14,30,30,0,0,0,9,6.22,26.29,26.29,0,0,0,10.92,2.29,27.19,27.19,0,0,0,11-2.29,28.13,28.13,0,0,0,9-6.22,30.81,30.81,0,0,0,6.1-9.14,27.16,27.16,0,0,0,2.29-11,29.37,29.37,0,0,0-8.38-19.81Q769.51,368.69,757.32,368.18Z" transform="translate(-72.9 -284.19)"/><path class="cls-1" d="M849.52,296.55a15.51,15.51,0,0,1,11.56,4.83,18.46,18.46,0,0,1,5.21,11.94V413.65a12.21,12.21,0,0,0,3.3,8.64,10.92,10.92,0,0,0,8.38,3.56,16.5,16.5,0,0,1,11.56,4.57,15.54,15.54,0,0,1,1,22.22,17.54,17.54,0,0,1-10.79,5.71h-3.56a39,39,0,0,1-16.76-3.68,47.06,47.06,0,0,1-13.84-9.78,45.21,45.21,0,0,1-9.4-14.22,43.33,43.33,0,0,1-3.43-17V312.3a18.1,18.1,0,0,1,5.33-10.92A16.42,16.42,0,0,1,849.52,296.55Z" transform="translate(-72.9 -284.19)"/><path class="cls-1" d="M972.2,335.41a59.31,59.31,0,0,1,21.46,6.6,60.59,60.59,0,0,1,17.27,13.59,64.32,64.32,0,0,1,11.43,18.8,59.62,59.62,0,0,1,4.19,22.23v45a15.52,15.52,0,0,1-5.08,11.68A16.19,16.19,0,0,1,1010,458.1q-8.89,0-14.22-8.13a14.51,14.51,0,0,0-2.29,1.14q-1,.64-2,1.14a67.73,67.73,0,0,1-12.45,4.32,62,62,0,0,1-14,1.52,58.72,58.72,0,0,1-34-10.29,63.41,63.41,0,0,1-22.35-26.54,67.61,67.61,0,0,1-3.94-11.94,58.41,58.41,0,0,1,0-25.4A67.74,67.74,0,0,1,908.7,372a62.27,62.27,0,0,1,22.35-26.67,59.25,59.25,0,0,1,34-10.16h3.68A24.7,24.7,0,0,1,972.2,335.41Zm-7.37,89.66a28.53,28.53,0,0,0,11-2.16,27.44,27.44,0,0,0,9-6,29.18,29.18,0,0,0,6.1-9,27.79,27.79,0,0,0,2.29-11.3,26.59,26.59,0,0,0-2.29-10.8,29.61,29.61,0,0,0-15.37-15.37,26.6,26.6,0,0,0-10.79-2.29,25.7,25.7,0,0,0-10.67,2.29,30.11,30.11,0,0,0-9,6.22,29.7,29.7,0,0,0-6.22,9.14,26.59,26.59,0,0,0-2.29,10.8,25.91,25.91,0,0,0,2.41,11,29.82,29.82,0,0,0,6.35,9,31.28,31.28,0,0,0,9,6.1A25.12,25.12,0,0,0,964.83,425.08Z" transform="translate(-72.9 -284.19)"/><path class="cls-1" d="M1103,334.4a62.72,62.72,0,0,1,23.37,4.45,60.3,60.3,0,0,1,19.56,12.45,62.12,62.12,0,0,1,13.46,18.92,55.34,55.34,0,0,1,5.08,23.62v47a15.83,15.83,0,0,1-4.7,11.43,16.39,16.39,0,0,1-11.56,5.08,17.08,17.08,0,0,1-11.81-4.45,14.51,14.51,0,0,1-5-11.3V395.87a28.62,28.62,0,0,0-2.16-11,26.61,26.61,0,0,0-6.1-9,30.93,30.93,0,0,0-9.14-6.1,27.81,27.81,0,0,0-11.3-2.29,27,27,0,0,0-10.67,2.16,30.24,30.24,0,0,0-8.89,5.71,26.62,26.62,0,0,0-6.1,8.64,25.73,25.73,0,0,0-2.29,10.67v46.23a15.65,15.65,0,0,1-5.08,11.56,16.27,16.27,0,0,1-11.68,5,17,17,0,0,1-11.68-4.57,14.45,14.45,0,0,1-5.08-11.18V395.87a64.23,64.23,0,0,1,5-23.88,61.56,61.56,0,0,1,13-19.56,60.61,60.61,0,0,1,43.81-18Z" transform="translate(-72.9 -284.19)"/><path class="cls-1" d="M1281.57,296.3a16.27,16.27,0,0,1,11.56,4.7,15.9,15.9,0,0,1,5,12.06v83.57a57.65,57.65,0,0,1-5,23.62,63,63,0,0,1-13.46,19.56A65.81,65.81,0,0,1,1260,453.14a57.06,57.06,0,0,1-23.37,5,58.31,58.31,0,0,1-23.37-4.83,63.75,63.75,0,0,1-19.69-13.21A64.76,64.76,0,0,1,1180,420.5a57,57,0,0,1-5.08-23.88,57.68,57.68,0,0,1,5-23.62,63,63,0,0,1,13.46-19.56A65.69,65.69,0,0,1,1213,340.11a57.65,57.65,0,0,1,23.62-5A59.33,59.33,0,0,1,1264.8,342V312.81a15.06,15.06,0,0,1,1.4-6.35,18.13,18.13,0,0,1,3.68-5.33,16.6,16.6,0,0,1,11.68-4.83Zm-45,71.88a27.17,27.17,0,0,0-11,2.29,29.62,29.62,0,0,0-15.37,15.37,26.61,26.61,0,0,0-2.29,10.8,27.17,27.17,0,0,0,2.29,11,28.08,28.08,0,0,0,6.22,9,30.79,30.79,0,0,0,9.14,6.1,27.16,27.16,0,0,0,11,2.29,25.72,25.72,0,0,0,10.67-2.29,30.37,30.37,0,0,0,15.24-15.24,26.29,26.29,0,0,0,2.29-10.92,27.8,27.8,0,0,0-2.29-11.3,28.2,28.2,0,0,0-6.22-9,29.44,29.44,0,0,0-9-6A27.05,27.05,0,0,0,1236.61,368.18Z" transform="translate(-72.9 -284.19)"/></g><g id="prontoland"><path class="cls-2" d="M134.62,323.56a59,59,0,0,1,23.62,4.83,62.33,62.33,0,0,1,19.56,13.21,64.13,64.13,0,0,1,13.33,19.56,58.27,58.27,0,0,1,5,23.88,61,61,0,0,1-4.7,23.88,61.67,61.67,0,0,1-13,19.56,60.42,60.42,0,0,1-19.56,13.21,61.1,61.1,0,0,1-24.26,4.83,62.69,62.69,0,0,1-28.45-6.35v29.21a15.64,15.64,0,0,1-4.83,11.43,16.23,16.23,0,0,1-11.94,4.83,16.46,16.46,0,0,1-11.3-4.45,15.07,15.07,0,0,1-5.21-11V385a57.67,57.67,0,0,1,5-23.62,63.67,63.67,0,0,1,32.89-32.89A58.24,58.24,0,0,1,134.62,323.56ZM106.18,385a28.43,28.43,0,0,0,2.29,11.56,28.11,28.11,0,0,0,6.22,9,28.92,28.92,0,0,0,9.14,6,27.89,27.89,0,0,0,10.8,2.16,26.94,26.94,0,0,0,11.18-2.29,28.54,28.54,0,0,0,8.89-6.22,29,29,0,0,0,6-9.14,28.59,28.59,0,0,0,2.16-11,27.19,27.19,0,0,0-2.29-11,29.24,29.24,0,0,0-6.1-9,28.5,28.5,0,0,0-31.12-5.84,29.2,29.2,0,0,0-9,6.1A27.75,27.75,0,0,0,106.18,385Z" transform="translate(-72.9 -284.19)"/><path class="cls-2" d="M222,446.75a15.74,15.74,0,0,1-11.43-4.44,17.48,17.48,0,0,1-5.08-11.81v-47a57.35,57.35,0,0,1,5.21-23,61.77,61.77,0,0,1,13.21-18.8,62.71,62.71,0,0,1,19.3-12.7,66.52,66.52,0,0,1,23.49-5.21,15.82,15.82,0,0,1,11.81,4.83,18.18,18.18,0,0,1,5.21,11.68,15.51,15.51,0,0,1-4.83,11.56,17.37,17.37,0,0,1-11.94,5A27.75,27.75,0,0,0,247.14,365a29.25,29.25,0,0,0-6.1,9,27.81,27.81,0,0,0-2.29,11.3v46.23a16.45,16.45,0,0,1-5,10.92Q229.36,446.75,222,446.75Z" transform="translate(-72.9 -284.19)"/><path class="cls-2" d="M347.73,323.3a59,59,0,0,1,23.62,4.83,62.33,62.33,0,0,1,19.56,13.21,64.12,64.12,0,0,1,13.33,19.56,61,61,0,0,1,.13,47.88,63.91,63.91,0,0,1-13.08,19.43,60.8,60.8,0,0,1-19.43,13.21,60.19,60.19,0,0,1-24.13,4.83,62.43,62.43,0,0,1-23.88-4.57,59.83,59.83,0,0,1-19.56-12.83,60.6,60.6,0,0,1-18-43.81A60.36,60.36,0,0,1,303.91,342a63.24,63.24,0,0,1,19.56-13.21A66.4,66.4,0,0,1,347.73,323.3Zm0,33.27a27.66,27.66,0,0,0-10.92,2.16,29.35,29.35,0,0,0-9,6,28.14,28.14,0,0,0-6.22,9,27.81,27.81,0,0,0-2.29,11.3,27.17,27.17,0,0,0,2.29,11,29.61,29.61,0,0,0,6.22,9.14,30.06,30.06,0,0,0,9,6.22,26.3,26.3,0,0,0,10.92,2.29,27.2,27.2,0,0,0,11-2.29,28.15,28.15,0,0,0,9-6.22,30.81,30.81,0,0,0,6.1-9.14,27.15,27.15,0,0,0,2.29-11,29.37,29.37,0,0,0-8.38-19.81Q359.92,357.09,347.73,356.58Z" transform="translate(-72.9 -284.19)"/><path class="cls-2" d="M484.38,322.79a62.72,62.72,0,0,1,23.37,4.45,60.3,60.3,0,0,1,19.56,12.45,62.12,62.12,0,0,1,13.46,18.92,55.34,55.34,0,0,1,5.08,23.62v47a15.83,15.83,0,0,1-4.7,11.43,16.39,16.39,0,0,1-11.56,5.08,17.08,17.08,0,0,1-11.81-4.44,14.51,14.51,0,0,1-5-11.3V384.26a28.62,28.62,0,0,0-2.16-11,26.61,26.61,0,0,0-6.1-9,30.93,30.93,0,0,0-9.14-6.1,27.81,27.81,0,0,0-11.3-2.29A27,27,0,0,0,473.46,358a30.24,30.24,0,0,0-8.89,5.71,26.62,26.62,0,0,0-6.1,8.64A25.73,25.73,0,0,0,456.18,383v46.23a15.65,15.65,0,0,1-5.08,11.56,16.27,16.27,0,0,1-11.68,5,16.94,16.94,0,0,1-11.68-4.57A14.45,14.45,0,0,1,422.66,430V384.26a64.23,64.23,0,0,1,5-23.88,61.56,61.56,0,0,1,13-19.56,60.61,60.61,0,0,1,43.81-18Z" transform="translate(-72.9 -284.19)"/><path class="cls-2" d="M578.35,284.19a16,16,0,0,1,11.94,5,19,19,0,0,1,5.33,12.32v20.32h43.69a15.31,15.31,0,0,1,11.94,5.08,17.27,17.27,0,0,1,4.57,11.94,16.48,16.48,0,0,1-5.08,11.81q-5.08,5.21-11.43,5.21H595.63v27.94a28.52,28.52,0,0,0,2.16,11,30.43,30.43,0,0,0,6,9.27,27.2,27.2,0,0,0,9,6.35,27.81,27.81,0,0,0,11.3,2.29,32,32,0,0,0,11.3-1.78,23.09,23.09,0,0,0,8.25-5.33,18.31,18.31,0,0,1,11.81-4.7q6.48-.13,12.06,5a15.13,15.13,0,0,1,3.81,5.21,17,17,0,0,1,1.4,6.1,17.41,17.41,0,0,1-.89,6.22,13.48,13.48,0,0,1-3.3,5.33A64.37,64.37,0,0,1,649,441.92a57.43,57.43,0,0,1-22.86,4.57A69.38,69.38,0,0,1,601.21,442a62.54,62.54,0,0,1-20.57-12.7,60.61,60.61,0,0,1-14.1-19.81,64.87,64.87,0,0,1-5.46-25.78V300.19a14.58,14.58,0,0,1,5.21-11.43A17.73,17.73,0,0,1,578.35,284.19Z" transform="translate(-72.9 -284.19)"/><path class="cls-2" d="M742.18,323.3a59,59,0,0,1,23.62,4.83,62.32,62.32,0,0,1,19.56,13.21A64.14,64.14,0,0,1,798.7,360.9a61,61,0,0,1,.13,47.88,63.9,63.9,0,0,1-13.08,19.43,60.59,60.59,0,0,1-43.56,18,62.43,62.43,0,0,1-23.88-4.57,59.82,59.82,0,0,1-19.56-12.83,60.61,60.61,0,0,1-18-43.81A60.36,60.36,0,0,1,698.37,342a63.25,63.25,0,0,1,19.56-13.21A66.4,66.4,0,0,1,742.18,323.3Zm0,33.27a27.66,27.66,0,0,0-10.92,2.16,29.35,29.35,0,0,0-9,6,28.13,28.13,0,0,0-6.22,9,27.8,27.8,0,0,0-2.29,11.3,27.16,27.16,0,0,0,2.29,11,29.6,29.6,0,0,0,6.22,9.14,30.06,30.06,0,0,0,9,6.22,26.3,26.3,0,0,0,10.92,2.29,27.2,27.2,0,0,0,11-2.29,28.15,28.15,0,0,0,9-6.22,30.82,30.82,0,0,0,6.1-9.14,27.16,27.16,0,0,0,2.29-11,29.37,29.37,0,0,0-8.38-19.81Q754.37,357.09,742.18,356.58Z" transform="translate(-72.9 -284.19)"/><path class="cls-3" d="M834.38,284.95a15.51,15.51,0,0,1,11.56,4.83,18.46,18.46,0,0,1,5.21,11.94V402a12.22,12.22,0,0,0,3.3,8.64,10.92,10.92,0,0,0,8.38,3.56,16.51,16.51,0,0,1,11.56,4.57,15.54,15.54,0,0,1,1,22.23,17.53,17.53,0,0,1-10.79,5.71h-3.56a39,39,0,0,1-16.76-3.68,47.06,47.06,0,0,1-13.84-9.78,45.22,45.22,0,0,1-9.4-14.22,43.32,43.32,0,0,1-3.43-17V300.7A18.1,18.1,0,0,1,823,289.78,16.42,16.42,0,0,1,834.38,284.95Z" transform="translate(-72.9 -284.19)"/><path class="cls-3" d="M957.06,323.81a59.31,59.31,0,0,1,21.46,6.6A60.59,60.59,0,0,1,995.8,344a64.32,64.32,0,0,1,11.43,18.8,59.62,59.62,0,0,1,4.19,22.23v45a15.52,15.52,0,0,1-5.08,11.68,16.19,16.19,0,0,1-11.43,4.83q-8.89,0-14.22-8.13a14.76,14.76,0,0,0-2.29,1.14q-1,.64-2,1.14A67.65,67.65,0,0,1,963.92,445a62,62,0,0,1-14,1.52,58.71,58.71,0,0,1-34-10.29,63.41,63.41,0,0,1-22.35-26.54,67.62,67.62,0,0,1-3.94-11.94,58.4,58.4,0,0,1,0-25.4,67.74,67.74,0,0,1,3.94-11.94,62.27,62.27,0,0,1,22.35-26.67,59.25,59.25,0,0,1,34-10.16h3.68A24.7,24.7,0,0,1,957.06,323.81Zm-7.37,89.66a28.55,28.55,0,0,0,11-2.16,27.5,27.5,0,0,0,9-6,29.2,29.2,0,0,0,6.1-9,27.79,27.79,0,0,0,2.29-11.3,26.59,26.59,0,0,0-2.29-10.8,29.61,29.61,0,0,0-15.37-15.37,26.6,26.6,0,0,0-10.79-2.29A25.7,25.7,0,0,0,939,358.86a30.11,30.11,0,0,0-9,6.22,29.69,29.69,0,0,0-6.22,9.14A26.59,26.59,0,0,0,921.5,385a25.91,25.91,0,0,0,2.41,11,29.85,29.85,0,0,0,6.35,9,31.33,31.33,0,0,0,9,6.1A25.13,25.13,0,0,0,949.7,413.47Z" transform="translate(-72.9 -284.19)"/><path class="cls-3" d="M1087.87,322.79a62.72,62.72,0,0,1,23.37,4.45,60.3,60.3,0,0,1,19.56,12.45,62.12,62.12,0,0,1,13.46,18.92,55.34,55.34,0,0,1,5.08,23.62v47a15.83,15.83,0,0,1-4.7,11.43,16.39,16.39,0,0,1-11.56,5.08,17.08,17.08,0,0,1-11.81-4.44,14.51,14.51,0,0,1-5-11.3V384.26a28.62,28.62,0,0,0-2.16-11,26.61,26.61,0,0,0-6.1-9,30.93,30.93,0,0,0-9.14-6.1,27.81,27.81,0,0,0-11.3-2.29,27,27,0,0,0-10.67,2.16,30.24,30.24,0,0,0-8.89,5.71,26.62,26.62,0,0,0-6.1,8.64,25.73,25.73,0,0,0-2.29,10.67v46.23a15.65,15.65,0,0,1-5.08,11.56,16.27,16.27,0,0,1-11.68,5,16.94,16.94,0,0,1-11.68-4.57,14.45,14.45,0,0,1-5.08-11.18V384.26a64.23,64.23,0,0,1,5-23.88,61.56,61.56,0,0,1,13-19.56,60.61,60.61,0,0,1,43.81-18Z" transform="translate(-72.9 -284.19)"/><path class="cls-3" d="M1266.43,284.7a16.27,16.27,0,0,1,11.56,4.7,15.9,15.9,0,0,1,5,12.06V385a57.65,57.65,0,0,1-5,23.62,63,63,0,0,1-13.46,19.56,65.81,65.81,0,0,1-19.69,13.33,57.07,57.07,0,0,1-23.37,5,58.31,58.31,0,0,1-23.37-4.83,63.75,63.75,0,0,1-19.69-13.21,64.76,64.76,0,0,1-13.59-19.56,57,57,0,0,1-5.08-23.88,57.68,57.68,0,0,1,5-23.62,63,63,0,0,1,13.46-19.56,65.69,65.69,0,0,1,19.68-13.33,57.65,57.65,0,0,1,23.62-5,59.33,59.33,0,0,1,28.19,6.86V301.21a15.06,15.06,0,0,1,1.4-6.35,18.13,18.13,0,0,1,3.68-5.33,16.6,16.6,0,0,1,11.68-4.83Zm-45,71.88a27.17,27.17,0,0,0-11,2.29,29.62,29.62,0,0,0-15.37,15.37,26.61,26.61,0,0,0-2.29,10.8,27.18,27.18,0,0,0,2.29,11,28.11,28.11,0,0,0,6.22,9,30.84,30.84,0,0,0,9.14,6.1,27.18,27.18,0,0,0,11,2.29,25.73,25.73,0,0,0,10.67-2.29,30.37,30.37,0,0,0,15.24-15.24,26.29,26.29,0,0,0,2.29-10.92,27.8,27.8,0,0,0-2.29-11.3,28.2,28.2,0,0,0-6.22-9,29.44,29.44,0,0,0-9-6A27.05,27.05,0,0,0,1221.47,356.58Z" transform="translate(-72.9 -284.19)"/></g></svg>