<?xml version="1.0" encoding="utf-8"?>
<!-- Generator: Adobe Illustrator 21.0.0, SVG Export Plug-In . SVG Version: 6.00 Build 0)  -->
<svg version="1.1" xmlns="http://www.w3.org/2000/svg" xmlns:xlink="http://www.w3.org/1999/xlink" x="0px" y="0px"
	 viewBox="0 0 512 512" style="enable-background:new 0 0 512 512;" xml:space="preserve">
<style type="text/css">
	.st0{fill:#43145E;}
	.st1{fill:#B6E849;}
</style>
<g id="Capa_1">
	<g id="icomoon-ignore">
	</g>
	<path class="st0" d="M0,512C64,320,231.5,0,512,0C380.5,105.5,320,352,224,352s-96,0-96,0L17,504L0,512z"/>
</g>
<g id="Capa_2">
	<g>
		<path class="st1" d="M255.6,152.2c8.6,0,16.8,1.7,24.6,5c7.7,3.3,14.5,7.9,20.3,13.7c5.8,5.8,10.4,12.6,13.9,20.3
			c3.4,7.7,5.1,16,5.1,24.8c0,8.8-1.6,17.1-4.9,24.8c-3.3,7.7-7.7,14.5-13.5,20.3c-5.7,5.8-12.5,10.4-20.3,13.7
			c-7.8,3.3-16.2,5-25.2,5c-10.9,0-20.8-2.2-29.6-6.6v30.4c0,4.6-1.7,8.5-5,11.9c-3.3,3.3-7.5,5-12.4,5c-4.4,0-8.3-1.5-11.7-4.6
			c-3.4-3.1-5.2-6.9-5.4-11.5v-88.4c0-8.6,1.7-16.8,5.1-24.6c3.4-7.7,8.1-14.5,13.9-20.3s12.6-10.4,20.3-13.9
			C238.5,153.9,246.8,152.2,255.6,152.2z M226,216.1c0,4.4,0.8,8.4,2.4,12c1.6,3.6,3.7,6.7,6.5,9.4c2.7,2.6,5.9,4.7,9.5,6.2
			c3.6,1.5,7.3,2.2,11.2,2.2c4.2,0,8.1-0.8,11.6-2.4c3.5-1.6,6.6-3.7,9.2-6.5c2.6-2.7,4.7-5.9,6.2-9.5c1.5-3.6,2.2-7.4,2.2-11.5
			c0-4-0.8-7.9-2.4-11.5c-1.6-3.6-3.7-6.7-6.3-9.4c-2.6-2.6-5.7-4.7-9.2-6.2c-3.5-1.5-7.3-2.2-11.4-2.2c-4.2,0-8.1,0.8-11.7,2.4
			c-3.6,1.6-6.7,3.7-9.4,6.3c-2.6,2.6-4.7,5.7-6.2,9.2C226.8,208.3,226,212.1,226,216.1z"/>
	</g>
</g>
</svg>
